<svg width="20" height="20" viewBox="0 0 20 20" fill="none" xmlns="http://www.w3.org/2000/svg">
<path d="M13.4783 7.82608C13.7183 7.82608 13.9131 7.63128 13.9131 7.39128V2.1739C13.913 0.975651 12.9383 0 11.7391 0H2.1739C0.974796 0 0 0.975651 0 2.1739V17.8261C0 19.0243 0.974796 20 2.1739 20H11.7391C12.9383 20 13.913 19.0243 13.913 17.8261V12.6087C13.913 12.3687 13.7182 12.1739 13.4782 12.1739C13.2382 12.1739 13.0435 12.3687 13.0435 12.6087V17.8261C13.0435 18.5452 12.4583 19.1304 11.7391 19.1304H2.1739C1.45475 19.1304 0.869551 18.5452 0.869551 17.8261V2.1739C0.869551 1.45475 1.45475 0.869551 2.1739 0.869551H11.7391C12.4583 0.869551 13.0435 1.45475 13.0435 2.1739V7.39128C13.0435 7.63128 13.2383 7.82608 13.4783 7.82608Z" fill="#444"/>
<path d="M19.5651 9.56519H5.65208C5.41208 9.56519 5.21729 9.75998 5.21729 9.99998C5.21729 10.24 5.41208 10.4347 5.65208 10.4347H19.5651C19.8051 10.4347 19.9999 10.2399 19.9999 9.99994C19.9999 9.75994 19.8051 9.56519 19.5651 9.56519Z" fill="#444"/>
<path d="M19.8721 9.69388L17.2635 7.08518C17.0939 6.91562 16.8182 6.91562 16.6487 7.08518C16.4791 7.25475 16.4791 7.53041 16.6487 7.69998L18.9495 10.0008L16.6487 12.3017C16.4791 12.4713 16.4791 12.7469 16.6487 12.9165C16.7339 13.0008 16.8452 13.0435 16.9565 13.0435C17.0678 13.0435 17.1791 13.0009 17.2635 12.9174L19.8721 10.3087C20.0417 10.1391 20.0417 9.86344 19.8721 9.69388Z" fill="#444"/>
</svg>
